<svg width="179" height="23" viewBox="0 0 179 23" fill="none" xmlns="http://www.w3.org/2000/svg">
<path d="M9.77711 22.42C7.97711 22.42 6.37711 21.99 4.97711 21.13C3.59711 20.27 2.50711 19.03 1.70711 17.41C0.907106 15.79 0.507106 13.82 0.507106 11.5C0.507106 9.18 0.907106 7.21 1.70711 5.59C2.50711 3.97 3.59711 2.73 4.97711 1.87C6.37711 1.01 7.97711 0.579999 9.77711 0.579999C11.5571 0.579999 13.1371 1.01 14.5171 1.87C15.9171 2.73 17.0171 3.97 17.8171 5.59C18.6171 7.21 19.0171 9.18 19.0171 11.5C19.0171 13.82 18.6171 15.79 17.8171 17.41C17.0171 19.03 15.9171 20.27 14.5171 21.13C13.1371 21.99 11.5571 22.42 9.77711 22.42ZM9.77711 17.56C10.4171 17.56 10.9771 17.36 11.4571 16.96C11.9571 16.56 12.3471 15.92 12.6271 15.04C12.9071 14.14 13.0471 12.96 13.0471 11.5C13.0471 10.02 12.9071 8.84 12.6271 7.96C12.3471 7.08 11.9571 6.44 11.4571 6.04C10.9771 5.64 10.4171 5.44 9.77711 5.44C9.13711 5.44 8.56711 5.64 8.06711 6.04C7.58711 6.44 7.19711 7.08 6.89711 7.96C6.61711 8.84 6.47711 10.02 6.47711 11.5C6.47711 12.96 6.61711 14.14 6.89711 15.04C7.19711 15.92 7.58711 16.56 8.06711 16.96C8.56711 17.36 9.13711 17.56 9.77711 17.56ZM33.5242 0.579999C35.5042 0.579999 37.2142 0.969999 38.6542 1.75C40.1142 2.53 41.2442 3.69 42.0442 5.23C42.8642 6.75 43.2742 8.65 43.2742 10.93C43.2742 13.37 42.7942 15.45 41.8342 17.17C40.8942 18.87 39.5842 20.17 37.9042 21.07C36.2442 21.97 34.3042 22.42 32.0842 22.42C30.9242 22.42 29.8042 22.28 28.7242 22C27.6442 21.74 26.7142 21.37 25.9342 20.89L28.0942 16.63C28.6942 17.05 29.3142 17.34 29.9542 17.5C30.6142 17.64 31.2842 17.71 31.9642 17.71C33.5842 17.71 34.8742 17.22 35.8342 16.24C36.7942 15.26 37.2742 13.83 37.2742 11.95C37.2742 11.61 37.2742 11.26 37.2742 10.9C37.2742 10.52 37.2442 10.14 37.1842 9.76L38.6542 10.99C38.2942 11.73 37.8242 12.35 37.2442 12.85C36.6642 13.35 35.9842 13.73 35.2042 13.99C34.4242 14.25 33.5342 14.38 32.5342 14.38C31.2142 14.38 30.0042 14.11 28.9042 13.57C27.8242 13.01 26.9542 12.24 26.2942 11.26C25.6342 10.26 25.3042 9.09 25.3042 7.75C25.3042 6.29 25.6742 5.03 26.4142 3.97C27.1542 2.89 28.1442 2.06 29.3842 1.48C30.6242 0.879999 32.0042 0.579999 33.5242 0.579999ZM33.9142 4.81C33.3542 4.81 32.8642 4.92 32.4442 5.14C32.0242 5.36 31.6842 5.67 31.4242 6.07C31.1842 6.45 31.0642 6.92 31.0642 7.48C31.0642 8.28 31.3242 8.92 31.8442 9.4C32.3842 9.88 33.0842 10.12 33.9442 10.12C34.5242 10.12 35.0342 10.01 35.4742 9.79C35.9142 9.57 36.2542 9.26 36.4942 8.86C36.7342 8.46 36.8542 7.99 36.8542 7.45C36.8542 6.93 36.7342 6.48 36.4942 6.1C36.2542 5.7 35.9142 5.39 35.4742 5.17C35.0342 4.93 34.5142 4.81 33.9142 4.81ZM52.9265 22.27C51.9665 22.27 51.1565 21.95 50.4965 21.31C49.8365 20.67 49.5065 19.86 49.5065 18.88C49.5065 17.86 49.8365 17.05 50.4965 16.45C51.1565 15.83 51.9665 15.52 52.9265 15.52C53.8865 15.52 54.6965 15.83 55.3565 16.45C56.0165 17.05 56.3465 17.86 56.3465 18.88C56.3465 19.86 56.0165 20.67 55.3565 21.31C54.6965 21.95 53.8865 22.27 52.9265 22.27Z" fill="url(#paint0_linear_273_2)"/>
<path d="M65.1426 22V0.999999H74.5626C76.9826 0.999999 78.8426 1.49 80.1426 2.47C81.4426 3.43 82.0926 4.75 82.0926 6.43C82.0926 7.57 81.8326 8.53 81.3126 9.31C80.8126 10.09 80.1326 10.69 79.2726 11.11C78.4126 11.53 77.4826 11.74 76.4826 11.74L77.0226 10.84C78.2226 10.84 79.2826 11.05 80.2026 11.47C81.1226 11.89 81.8526 12.51 82.3926 13.33C82.9326 14.13 83.2026 15.13 83.2026 16.33C83.2026 18.13 82.5226 19.53 81.1626 20.53C79.8226 21.51 77.8226 22 75.1626 22H65.1426ZM68.1426 19.57H75.0426C76.7026 19.57 77.9726 19.29 78.8526 18.73C79.7326 18.17 80.1726 17.29 80.1726 16.09C80.1726 14.87 79.7326 13.98 78.8526 13.42C77.9726 12.86 76.7026 12.58 75.0426 12.58H67.8726V10.15H74.2926C75.8126 10.15 76.9926 9.87 77.8326 9.31C78.6726 8.75 79.0926 7.91 79.0926 6.79C79.0926 5.67 78.6726 4.83 77.8326 4.27C76.9926 3.71 75.8126 3.43 74.2926 3.43H68.1426V19.57ZM101.348 22.24C98.5877 22.24 96.4177 21.45 94.8377 19.87C93.2577 18.29 92.4677 15.98 92.4677 12.94V0.999999H95.4677V12.82C95.4677 15.16 95.9777 16.87 96.9977 17.95C98.0377 19.03 99.4977 19.57 101.378 19.57C103.278 19.57 104.738 19.03 105.758 17.95C106.798 16.87 107.318 15.16 107.318 12.82V0.999999H110.228V12.94C110.228 15.98 109.438 18.29 107.858 19.87C106.298 21.45 104.128 22.24 101.348 22.24ZM121.178 22V0.999999H124.178V22H121.178ZM135.265 22V0.999999H138.265V19.39H149.635V22H135.265ZM157.878 22V0.999999H166.728C168.968 0.999999 170.938 1.44 172.638 2.32C174.358 3.2 175.688 4.43 176.628 6.01C177.588 7.59 178.068 9.42 178.068 11.5C178.068 13.58 177.588 15.41 176.628 16.99C175.688 18.57 174.358 19.8 172.638 20.68C170.938 21.56 168.968 22 166.728 22H157.878ZM160.878 19.39H166.548C168.288 19.39 169.788 19.06 171.048 18.4C172.328 17.74 173.318 16.82 174.018 15.64C174.718 14.44 175.068 13.06 175.068 11.5C175.068 9.92 174.718 8.54 174.018 7.36C173.318 6.18 172.328 5.26 171.048 4.6C169.788 3.94 168.288 3.61 166.548 3.61H160.878V19.39Z" fill="url(#paint1_linear_273_2)"/>
<defs>
<linearGradient id="paint0_linear_273_2" x1="89.5" y1="-4" x2="89.5" y2="26" gradientUnits="userSpaceOnUse">
<stop stop-color="#939CDE"/>
<stop offset="0.383333" stop-color="#5B67C1"/>
</linearGradient>
<linearGradient id="paint1_linear_273_2" x1="89.5" y1="-4" x2="89.5" y2="26" gradientUnits="userSpaceOnUse">
<stop stop-color="#8B8A8D"/>
<stop offset="1" stop-color="#8B8A8D"/>
</linearGradient>
</defs>
</svg>
