<svg width="115" height="53" viewBox="0 0 115 53" fill="none" xmlns="http://www.w3.org/2000/svg">
<path d="M67.5845 22.42C65.7845 22.42 64.1845 21.99 62.7845 21.13C61.4045 20.27 60.3145 19.03 59.5145 17.41C58.7145 15.79 58.3145 13.82 58.3145 11.5C58.3145 9.18 58.7145 7.21 59.5145 5.59C60.3145 3.97 61.4045 2.73 62.7845 1.87C64.1845 1.01 65.7845 0.579999 67.5845 0.579999C69.3645 0.579999 70.9445 1.01 72.3245 1.87C73.7245 2.73 74.8245 3.97 75.6245 5.59C76.4245 7.21 76.8245 9.18 76.8245 11.5C76.8245 13.82 76.4245 15.79 75.6245 17.41C74.8245 19.03 73.7245 20.27 72.3245 21.13C70.9445 21.99 69.3645 22.42 67.5845 22.42ZM67.5845 17.56C68.2245 17.56 68.7845 17.36 69.2645 16.96C69.7645 16.56 70.1545 15.92 70.4345 15.04C70.7145 14.14 70.8545 12.96 70.8545 11.5C70.8545 10.02 70.7145 8.84 70.4345 7.96C70.1545 7.08 69.7645 6.44 69.2645 6.04C68.7845 5.64 68.2245 5.44 67.5845 5.44C66.9445 5.44 66.3745 5.64 65.8745 6.04C65.3945 6.44 65.0045 7.08 64.7045 7.96C64.4245 8.84 64.2845 10.02 64.2845 11.5C64.2845 12.96 64.4245 14.14 64.7045 15.04C65.0045 15.92 65.3945 16.56 65.8745 16.96C66.3745 17.36 66.9445 17.56 67.5845 17.56ZM91.3316 0.579999C93.3116 0.579999 95.0216 0.969999 96.4616 1.75C97.9216 2.53 99.0516 3.69 99.8516 5.23C100.672 6.75 101.082 8.65 101.082 10.93C101.082 13.37 100.602 15.45 99.6416 17.17C98.7016 18.87 97.3916 20.17 95.7116 21.07C94.0516 21.97 92.1116 22.42 89.8916 22.42C88.7316 22.42 87.6116 22.28 86.5316 22C85.4516 21.74 84.5216 21.37 83.7416 20.89L85.9016 16.63C86.5016 17.05 87.1216 17.34 87.7616 17.5C88.4216 17.64 89.0916 17.71 89.7716 17.71C91.3916 17.71 92.6816 17.22 93.6416 16.24C94.6016 15.26 95.0816 13.83 95.0816 11.95C95.0816 11.61 95.0816 11.26 95.0816 10.9C95.0816 10.52 95.0516 10.14 94.9916 9.76L96.4616 10.99C96.1016 11.73 95.6316 12.35 95.0516 12.85C94.4716 13.35 93.7916 13.73 93.0116 13.99C92.2316 14.25 91.3416 14.38 90.3416 14.38C89.0216 14.38 87.8116 14.11 86.7116 13.57C85.6316 13.01 84.7616 12.24 84.1016 11.26C83.4416 10.26 83.1116 9.09 83.1116 7.75C83.1116 6.29 83.4816 5.03 84.2216 3.97C84.9616 2.89 85.9516 2.06 87.1916 1.48C88.4316 0.879999 89.8116 0.579999 91.3316 0.579999ZM91.7216 4.81C91.1616 4.81 90.6716 4.92 90.2516 5.14C89.8316 5.36 89.4916 5.67 89.2316 6.07C88.9916 6.45 88.8716 6.92 88.8716 7.48C88.8716 8.28 89.1316 8.92 89.6516 9.4C90.1916 9.88 90.8916 10.12 91.7516 10.12C92.3316 10.12 92.8416 10.01 93.2816 9.79C93.7216 9.57 94.0616 9.26 94.3016 8.86C94.5416 8.46 94.6616 7.99 94.6616 7.45C94.6616 6.93 94.5416 6.48 94.3016 6.1C94.0616 5.7 93.7216 5.39 93.2816 5.17C92.8416 4.93 92.3216 4.81 91.7216 4.81ZM110.734 22.27C109.774 22.27 108.964 21.95 108.304 21.31C107.644 20.67 107.314 19.86 107.314 18.88C107.314 17.86 107.644 17.05 108.304 16.45C108.964 15.83 109.774 15.52 110.734 15.52C111.694 15.52 112.504 15.83 113.164 16.45C113.824 17.05 114.154 17.86 114.154 18.88C114.154 19.86 113.824 20.67 113.164 21.31C112.504 21.95 111.694 22.27 110.734 22.27Z" fill="url(#paint0_linear_275_24)"/>
<path d="M0.629691 52V31H10.0497C12.4697 31 14.3297 31.49 15.6297 32.47C16.9297 33.43 17.5797 34.75 17.5797 36.43C17.5797 37.57 17.3197 38.53 16.7997 39.31C16.2997 40.09 15.6197 40.69 14.7597 41.11C13.8997 41.53 12.9697 41.74 11.9697 41.74L12.5097 40.84C13.7097 40.84 14.7697 41.05 15.6897 41.47C16.6097 41.89 17.3397 42.51 17.8797 43.33C18.4197 44.13 18.6897 45.13 18.6897 46.33C18.6897 48.13 18.0097 49.53 16.6497 50.53C15.3097 51.51 13.3097 52 10.6497 52H0.629691ZM3.62969 49.57H10.5297C12.1897 49.57 13.4597 49.29 14.3397 48.73C15.2197 48.17 15.6597 47.29 15.6597 46.09C15.6597 44.87 15.2197 43.98 14.3397 43.42C13.4597 42.86 12.1897 42.58 10.5297 42.58H3.35969V40.15H9.77969C11.2997 40.15 12.4797 39.87 13.3197 39.31C14.1597 38.75 14.5797 37.91 14.5797 36.79C14.5797 35.67 14.1597 34.83 13.3197 34.27C12.4797 33.71 11.2997 33.43 9.77969 33.43H3.62969V49.57ZM36.8348 52.24C34.0748 52.24 31.9048 51.45 30.3248 49.87C28.7448 48.29 27.9548 45.98 27.9548 42.94V31H30.9548V42.82C30.9548 45.16 31.4648 46.87 32.4848 47.95C33.5248 49.03 34.9848 49.57 36.8648 49.57C38.7648 49.57 40.2248 49.03 41.2448 47.95C42.2848 46.87 42.8048 45.16 42.8048 42.82V31H45.7148V42.94C45.7148 45.98 44.9248 48.29 43.3448 49.87C41.7848 51.45 39.6148 52.24 36.8348 52.24ZM56.6652 52V31H59.6652V52H56.6652ZM70.7523 52V31H73.7523V49.39H85.1223V52H70.7523ZM93.3648 52V31H102.215C104.455 31 106.425 31.44 108.125 32.32C109.845 33.2 111.175 34.43 112.115 36.01C113.075 37.59 113.555 39.42 113.555 41.5C113.555 43.58 113.075 45.41 112.115 46.99C111.175 48.57 109.845 49.8 108.125 50.68C106.425 51.56 104.455 52 102.215 52H93.3648ZM96.3648 49.39H102.035C103.775 49.39 105.275 49.06 106.535 48.4C107.815 47.74 108.805 46.82 109.505 45.64C110.205 44.44 110.555 43.06 110.555 41.5C110.555 39.92 110.205 38.54 109.505 37.36C108.805 36.18 107.815 35.26 106.535 34.6C105.275 33.94 103.775 33.61 102.035 33.61H96.3648V49.39Z" fill="url(#paint1_linear_275_24)"/>
<defs>
<linearGradient id="paint0_linear_275_24" x1="55" y1="-4" x2="55" y2="56" gradientUnits="userSpaceOnUse">
<stop stop-color="#939CDE"/>
<stop offset="0.383333" stop-color="#5B67C1"/>
</linearGradient>
<linearGradient id="paint1_linear_275_24" x1="55" y1="-4" x2="55" y2="56" gradientUnits="userSpaceOnUse">
<stop stop-color="#8B8A8D"/>
<stop offset="1" stop-color="#8B8A8D"/>
</linearGradient>
</defs>
</svg>
