<svg width="116" height="53" viewBox="0 0 116 53" fill="none" xmlns="http://www.w3.org/2000/svg">
<path d="M9.29 22.42C7.49 22.42 5.89 21.99 4.49 21.13C3.11 20.27 2.02 19.03 1.22 17.41C0.42 15.79 0.0200001 13.82 0.0200001 11.5C0.0200001 9.18 0.42 7.21 1.22 5.59C2.02 3.97 3.11 2.73 4.49 1.87C5.89 1.01 7.49 0.579999 9.29 0.579999C11.07 0.579999 12.65 1.01 14.03 1.87C15.43 2.73 16.53 3.97 17.33 5.59C18.13 7.21 18.53 9.18 18.53 11.5C18.53 13.82 18.13 15.79 17.33 17.41C16.53 19.03 15.43 20.27 14.03 21.13C12.65 21.99 11.07 22.42 9.29 22.42ZM9.29 17.56C9.93 17.56 10.49 17.36 10.97 16.96C11.47 16.56 11.86 15.92 12.14 15.04C12.42 14.14 12.56 12.96 12.56 11.5C12.56 10.02 12.42 8.84 12.14 7.96C11.86 7.08 11.47 6.44 10.97 6.04C10.49 5.64 9.93 5.44 9.29 5.44C8.65 5.44 8.08 5.64 7.58 6.04C7.1 6.44 6.71 7.08 6.41 7.96C6.13 8.84 5.99 10.02 5.99 11.5C5.99 12.96 6.13 14.14 6.41 15.04C6.71 15.92 7.1 16.56 7.58 16.96C8.08 17.36 8.65 17.56 9.29 17.56ZM33.0371 0.579999C35.0171 0.579999 36.7271 0.969999 38.1671 1.75C39.6271 2.53 40.7571 3.69 41.5571 5.23C42.3771 6.75 42.7871 8.65 42.7871 10.93C42.7871 13.37 42.3071 15.45 41.3471 17.17C40.4071 18.87 39.0971 20.17 37.4171 21.07C35.7571 21.97 33.8171 22.42 31.5971 22.42C30.4371 22.42 29.3171 22.28 28.2371 22C27.1571 21.74 26.2271 21.37 25.4471 20.89L27.6071 16.63C28.2071 17.05 28.8271 17.34 29.4671 17.5C30.1271 17.64 30.7971 17.71 31.4771 17.71C33.0971 17.71 34.3871 17.22 35.3471 16.24C36.3071 15.26 36.7871 13.83 36.7871 11.95C36.7871 11.61 36.7871 11.26 36.7871 10.9C36.7871 10.52 36.7571 10.14 36.6971 9.76L38.1671 10.99C37.8071 11.73 37.3371 12.35 36.7571 12.85C36.1771 13.35 35.4971 13.73 34.7171 13.99C33.9371 14.25 33.0471 14.38 32.0471 14.38C30.7271 14.38 29.5171 14.11 28.4171 13.57C27.3371 13.01 26.4671 12.24 25.8071 11.26C25.1471 10.26 24.8171 9.09 24.8171 7.75C24.8171 6.29 25.1871 5.03 25.9271 3.97C26.6671 2.89 27.6571 2.06 28.8971 1.48C30.1371 0.879999 31.5171 0.579999 33.0371 0.579999ZM33.4271 4.81C32.8671 4.81 32.3771 4.92 31.9571 5.14C31.5371 5.36 31.1971 5.67 30.9371 6.07C30.6971 6.45 30.5771 6.92 30.5771 7.48C30.5771 8.28 30.8371 8.92 31.3571 9.4C31.8971 9.88 32.5971 10.12 33.4571 10.12C34.0371 10.12 34.5471 10.01 34.9871 9.79C35.4271 9.57 35.7671 9.26 36.0071 8.86C36.2471 8.46 36.3671 7.99 36.3671 7.45C36.3671 6.93 36.2471 6.48 36.0071 6.1C35.7671 5.7 35.4271 5.39 34.9871 5.17C34.5471 4.93 34.0271 4.81 33.4271 4.81ZM52.4394 22.27C51.4794 22.27 50.6694 21.95 50.0094 21.31C49.3494 20.67 49.0194 19.86 49.0194 18.88C49.0194 17.86 49.3494 17.05 50.0094 16.45C50.6694 15.83 51.4794 15.52 52.4394 15.52C53.3994 15.52 54.2094 15.83 54.8694 16.45C55.5294 17.05 55.8594 17.86 55.8594 18.88C55.8594 19.86 55.5294 20.67 54.8694 21.31C54.2094 21.95 53.3994 22.27 52.4394 22.27Z" fill="url(#paint0_linear_52_21)"/>
<path d="M2.15 52V31H11.57C13.99 31 15.85 31.49 17.15 32.47C18.45 33.43 19.1 34.75 19.1 36.43C19.1 37.57 18.84 38.53 18.32 39.31C17.82 40.09 17.14 40.69 16.28 41.11C15.42 41.53 14.49 41.74 13.49 41.74L14.03 40.84C15.23 40.84 16.29 41.05 17.21 41.47C18.13 41.89 18.86 42.51 19.4 43.33C19.94 44.13 20.21 45.13 20.21 46.33C20.21 48.13 19.53 49.53 18.17 50.53C16.83 51.51 14.83 52 12.17 52H2.15ZM5.15 49.57H12.05C13.71 49.57 14.98 49.29 15.86 48.73C16.74 48.17 17.18 47.29 17.18 46.09C17.18 44.87 16.74 43.98 15.86 43.42C14.98 42.86 13.71 42.58 12.05 42.58H4.88V40.15H11.3C12.82 40.15 14 39.87 14.84 39.31C15.68 38.75 16.1 37.91 16.1 36.79C16.1 35.67 15.68 34.83 14.84 34.27C14 33.71 12.82 33.43 11.3 33.43H5.15V49.57ZM38.3551 52.24C35.5951 52.24 33.4251 51.45 31.8451 49.87C30.2651 48.29 29.4751 45.98 29.4751 42.94V31H32.4751V42.82C32.4751 45.16 32.9851 46.87 34.0051 47.95C35.0451 49.03 36.5051 49.57 38.3851 49.57C40.2851 49.57 41.7451 49.03 42.7651 47.95C43.8051 46.87 44.3251 45.16 44.3251 42.82V31H47.2351V42.94C47.2351 45.98 46.4451 48.29 44.8651 49.87C43.3051 51.45 41.1351 52.24 38.3551 52.24ZM58.1855 52V31H61.1855V52H58.1855ZM72.2727 52V31H75.2727V49.39H86.6427V52H72.2727ZM94.8852 52V31H103.735C105.975 31 107.945 31.44 109.645 32.32C111.365 33.2 112.695 34.43 113.635 36.01C114.595 37.59 115.075 39.42 115.075 41.5C115.075 43.58 114.595 45.41 113.635 46.99C112.695 48.57 111.365 49.8 109.645 50.68C107.945 51.56 105.975 52 103.735 52H94.8852ZM97.8852 49.39H103.555C105.295 49.39 106.795 49.06 108.055 48.4C109.335 47.74 110.325 46.82 111.025 45.64C111.725 44.44 112.075 43.06 112.075 41.5C112.075 39.92 111.725 38.54 111.025 37.36C110.325 36.18 109.335 35.26 108.055 34.6C106.795 33.94 105.295 33.61 103.555 33.61H97.8852V49.39Z" fill="url(#paint1_linear_52_21)"/>
<defs>
<linearGradient id="paint0_linear_52_21" x1="85" y1="-4" x2="85" y2="56" gradientUnits="userSpaceOnUse">
<stop stop-color="#939CDE"/>
<stop offset="0.383333" stop-color="#5B67C1"/>
</linearGradient>
<linearGradient id="paint1_linear_52_21" x1="85" y1="-4" x2="85" y2="56" gradientUnits="userSpaceOnUse">
<stop stop-color="#8B8A8D"/>
<stop offset="1" stop-color="#8B8A8D"/>
</linearGradient>
</defs>
</svg>
