<svg width="22" height="21" viewBox="0 0 22 21" fill="none" xmlns="http://www.w3.org/2000/svg">
<g clip-path="url(#clip0_203_467)">
<path d="M0.93934 18.1171C0.353553 18.7029 0.353553 19.6526 0.93934 20.2384C1.52513 20.8242 2.47487 20.8242 3.06066 20.2384L0.93934 18.1171ZM21.1777 1.50006C21.1777 0.671635 20.5061 6.23322e-05 19.6777 6.27669e-05L6.17767 6.41999e-05C5.34924 6.43396e-05 4.67767 0.671637 4.67767 1.50006C4.67767 2.32849 5.34924 3.00006 6.17767 3.00006L18.1777 3.00006L18.1777 15.0001C18.1777 15.8285 18.8492 16.5001 19.6777 16.5001C20.5061 16.5001 21.1777 15.8285 21.1777 15.0001L21.1777 1.50006ZM3.06066 20.2384L20.7383 2.56072L18.617 0.439402L0.93934 18.1171L3.06066 20.2384Z" fill="url(#paint0_linear_203_467)"/>
</g>
<defs>
<linearGradient id="paint0_linear_203_467" x1="5.18198" y1="4.68204" x2="15.435" y2="14.9351" gradientUnits="userSpaceOnUse">
<stop stop-color="#5B67C1"/>
<stop offset="0.534215" stop-color="#707BD0"/>
<stop offset="1" stop-color="#939CDE"/>
</linearGradient>
<clipPath id="clip0_203_467">
<rect width="22" height="21" fill="white"/>
</clipPath>
</defs>
</svg>
