<svg width="29" height="29" viewBox="0 0 29 29" fill="none" xmlns="http://www.w3.org/2000/svg">
<circle cx="14.4999" cy="14.4999" r="8.37324" fill="#A1A1A1"/>
<path d="M14.4997 0L17.1526 4.59507H11.8467L14.4997 0Z" fill="#A1A1A1"/>
<path d="M14.5003 29L11.8474 24.4049L17.1533 24.4049L14.5003 29Z" fill="#A1A1A1"/>
<path d="M24.7994 24.7844L19.6743 23.4111L23.4262 19.6593L24.7994 24.7844Z" fill="#A1A1A1"/>
<path d="M4.11462 4.11426L9.23976 5.48753L5.4879 9.23939L4.11462 4.11426Z" fill="#A1A1A1"/>
<path d="M4.11438 24.9419L5.48766 19.8168L9.23952 23.5686L4.11438 24.9419Z" fill="#A1A1A1"/>
<path d="M24.8781 4.11426L23.5048 9.23939L19.7529 5.48753L24.8781 4.11426Z" fill="#A1A1A1"/>
<path d="M29 14.4845L24.4049 17.1375L24.4049 11.8316L29 14.4845Z" fill="#A1A1A1"/>
<path d="M3.65304e-08 14.4845L4.59507 11.8315L4.59507 17.1374L3.65304e-08 14.4845Z" fill="#A1A1A1"/>
</svg>
