<svg width="110" height="110" viewBox="0 0 110 110" fill="none" xmlns="http://www.w3.org/2000/svg">
<rect x="0.5" y="0.5" width="109" height="109" stroke="#D3D3D3"/>
<path d="M25.58 76.84C21.98 76.84 18.78 75.98 15.98 74.26C13.22 72.54 11.04 70.06 9.44 66.82C7.84 63.58 7.04 59.64 7.04 55C7.04 50.36 7.84 46.42 9.44 43.18C11.04 39.94 13.22 37.46 15.98 35.74C18.78 34.02 21.98 33.16 25.58 33.16C29.14 33.16 32.3 34.02 35.06 35.74C37.86 37.46 40.06 39.94 41.66 43.18C43.26 46.42 44.06 50.36 44.06 55C44.06 59.64 43.26 63.58 41.66 66.82C40.06 70.06 37.86 72.54 35.06 74.26C32.3 75.98 29.14 76.84 25.58 76.84ZM25.58 67.12C26.86 67.12 27.98 66.72 28.94 65.92C29.94 65.12 30.72 63.84 31.28 62.08C31.84 60.28 32.12 57.92 32.12 55C32.12 52.04 31.84 49.68 31.28 47.92C30.72 46.16 29.94 44.88 28.94 44.08C27.98 43.28 26.86 42.88 25.58 42.88C24.3 42.88 23.16 43.28 22.16 44.08C21.2 44.88 20.42 46.16 19.82 47.92C19.26 49.68 18.98 52.04 18.98 55C18.98 57.92 19.26 60.28 19.82 62.08C20.42 63.84 21.2 65.12 22.16 65.92C23.16 66.72 24.3 67.12 25.58 67.12ZM64.9742 33.16C68.9342 33.16 72.3542 33.94 75.2342 35.5C78.1542 37.06 80.4142 39.38 82.0142 42.46C83.6542 45.5 84.4742 49.3 84.4742 53.86C84.4742 58.74 83.5142 62.9 81.5942 66.34C79.7142 69.74 77.0942 72.34 73.7342 74.14C70.4142 75.94 66.5342 76.84 62.0942 76.84C59.7742 76.84 57.5342 76.56 55.3742 76C53.2142 75.48 51.3542 74.74 49.7942 73.78L54.1142 65.26C55.3142 66.1 56.5542 66.68 57.8342 67C59.1542 67.28 60.4942 67.42 61.8542 67.42C65.0942 67.42 67.6742 66.44 69.5942 64.48C71.5142 62.52 72.4742 59.66 72.4742 55.9C72.4742 55.22 72.4742 54.52 72.4742 53.8C72.4742 53.04 72.4142 52.28 72.2942 51.52L75.2342 53.98C74.5142 55.46 73.5742 56.7 72.4142 57.7C71.2542 58.7 69.8942 59.46 68.3342 59.98C66.7742 60.5 64.9942 60.76 62.9942 60.76C60.3542 60.76 57.9342 60.22 55.7342 59.14C53.5742 58.02 51.8342 56.48 50.5142 54.52C49.1942 52.52 48.5342 50.18 48.5342 47.5C48.5342 44.58 49.2742 42.06 50.7542 39.94C52.2342 37.78 54.2142 36.12 56.6942 34.96C59.1742 33.76 61.9342 33.16 64.9742 33.16ZM65.7542 41.62C64.6342 41.62 63.6542 41.84 62.8142 42.28C61.9742 42.72 61.2942 43.34 60.7742 44.14C60.2942 44.9 60.0542 45.84 60.0542 46.96C60.0542 48.56 60.5742 49.84 61.6142 50.8C62.6942 51.76 64.0942 52.24 65.8142 52.24C66.9742 52.24 67.9942 52.02 68.8742 51.58C69.7542 51.14 70.4342 50.52 70.9142 49.72C71.3942 48.92 71.6342 47.98 71.6342 46.9C71.6342 45.86 71.3942 44.96 70.9142 44.2C70.4342 43.4 69.7542 42.78 68.8742 42.34C67.9942 41.86 66.9542 41.62 65.7542 41.62ZM95.6788 76.54C93.7588 76.54 92.1388 75.9 90.8188 74.62C89.4988 73.34 88.8388 71.72 88.8388 69.76C88.8388 67.72 89.4988 66.1 90.8188 64.9C92.1388 63.66 93.7588 63.04 95.6788 63.04C97.5988 63.04 99.2188 63.66 100.539 64.9C101.859 66.1 102.519 67.72 102.519 69.76C102.519 71.72 101.859 73.34 100.539 74.62C99.2188 75.9 97.5988 76.54 95.6788 76.54Z" fill="url(#paint0_linear_182_11)"/>
<defs>
<linearGradient id="paint0_linear_182_11" x1="55.5" y1="24" x2="55.5" y2="86" gradientUnits="userSpaceOnUse">
<stop stop-color="#939CDE"/>
<stop offset="0.383333" stop-color="#5B67C1"/>
</linearGradient>
</defs>
</svg>
